<svg xmlns="http://www.w3.org/2000/svg" width="13" height="18" viewBox="0 0 13 18">
  <path id="tap_click_force_touch-_1383_" data-name="tap_click_force_touch-[#1383]" d="M298.48,610.792l-4.8-.392-.008-4.975a1.124,1.124,0,0,0-2.231,0V613.8l-.925-1.175a1.185,1.185,0,0,0-1.673-.13.9.9,0,0,0-.124,1.244l2.4,3.955a1.076,1.076,0,0,0,.915.3h5.372a2.08,2.08,0,0,0,2.18-1.462l.369-3.55a1.9,1.9,0,0,0-1.477-2.2m-10.369-3.4a1.054,1.054,0,0,1-1.111-.986v-1.233c0-6.9,11.11-6.9,11.11,0v1.233a1.119,1.119,0,0,1-2.222,0v-1.233c0-3.945-6.666-3.945-6.666,0v1.233a1.054,1.054,0,0,1-1.111.986" transform="translate(-287 -600)" fill="#919491" fill-rule="evenodd"/>
</svg>
