<svg xmlns="http://www.w3.org/2000/svg" width="14.35" height="14.35" viewBox="0 0 14.35 14.35">
  <path id="ic_shopping_cart_24px" d="M5.305,13.48A1.435,1.435,0,1,0,6.74,14.915,1.433,1.433,0,0,0,5.305,13.48ZM1,2V3.435H2.435L5.018,8.881l-.969,1.758a1.387,1.387,0,0,0-.179.689,1.439,1.439,0,0,0,1.435,1.435h8.61V11.328H5.606a.178.178,0,0,1-.179-.179l.022-.086.646-1.17H11.44A1.428,1.428,0,0,0,12.7,9.153L15.264,4.5a.7.7,0,0,0,.086-.344.72.72,0,0,0-.718-.718H4.021L3.346,2H1ZM12.48,13.48a1.435,1.435,0,1,0,1.435,1.435A1.433,1.433,0,0,0,12.48,13.48Z" transform="translate(-1 -2)" fill="#fff"/>
</svg>
