<svg xmlns="http://www.w3.org/2000/svg" width="20" height="20" viewBox="0 0 20 20">
  <path id="Vector" d="M5.92,11.47a2.542,2.542,0,0,1,2.54,2.561V17.44A2.548,2.548,0,0,1,5.92,20H2.54A2.554,2.554,0,0,1,0,17.44V14.031A2.549,2.549,0,0,1,2.54,11.47Zm11.54,0A2.549,2.549,0,0,1,20,14.031V17.44A2.554,2.554,0,0,1,17.46,20H14.08a2.548,2.548,0,0,1-2.54-2.56V14.031a2.542,2.542,0,0,1,2.54-2.561ZM5.92,0A2.548,2.548,0,0,1,8.46,2.561V5.97A2.542,2.542,0,0,1,5.92,8.53H2.54A2.548,2.548,0,0,1,0,5.97V2.561A2.555,2.555,0,0,1,2.54,0ZM17.46,0A2.555,2.555,0,0,1,20,2.561V5.97a2.548,2.548,0,0,1-2.54,2.56H14.08a2.542,2.542,0,0,1-2.54-2.56V2.561A2.548,2.548,0,0,1,14.08,0Z" fill="#52b467"/>
</svg>
