<svg xmlns="http://www.w3.org/2000/svg" width="28.975" height="51.523" viewBox="0 0 28.975 51.523">
  <path id="Icon_awesome-dollar-sign" data-name="Icon awesome-dollar-sign" d="M21.051,23.487l-10.868-3.18a2.968,2.968,0,0,1,.835-5.816H17.69a6.142,6.142,0,0,1,3.442,1.057,1.569,1.569,0,0,0,1.962-.2l3.5-3.421a1.631,1.631,0,0,0-.181-2.465,14.229,14.229,0,0,0-8.7-3.019V1.61A1.615,1.615,0,0,0,16.1,0H12.88a1.615,1.615,0,0,0-1.61,1.61V6.44h-.252A11.026,11.026,0,0,0,.049,18.476,11.52,11.52,0,0,0,8.482,28.2L18.8,31.216a2.968,2.968,0,0,1-.835,5.816H11.29a6.142,6.142,0,0,1-3.442-1.057,1.569,1.569,0,0,0-1.962.2L2.384,39.6a1.631,1.631,0,0,0,.181,2.465,14.229,14.229,0,0,0,8.7,3.019v4.83a1.615,1.615,0,0,0,1.61,1.61H16.1a1.615,1.615,0,0,0,1.61-1.61v-4.85a11.367,11.367,0,0,0,10.637-7.316,11.05,11.05,0,0,0-7.3-14.259Z" transform="translate(-0.003)" fill="#52b467"/>
</svg>
