<svg xmlns="http://www.w3.org/2000/svg" width="20" height="20" viewBox="0 0 20 20">
  <path id="Vector" d="M6.956,2.96a1.1,1.1,0,0,1,1.2.6,1.119,1.119,0,0,1,.127.258c.136,2.1.281,4.158.417,6.219a1.877,1.877,0,0,0,.1.631,1.024,1.024,0,0,0,1.005.631l6.656-.426.045.018.121.009a1.085,1.085,0,0,1,.635.313,1.047,1.047,0,0,1,.3.753A8.671,8.671,0,0,1,10.683,19.8a8.845,8.845,0,0,1-9.595-4.284A8.215,8.215,0,0,1,.064,12.378,5.956,5.956,0,0,1,0,11.391,8.694,8.694,0,0,1,6.956,2.96ZM10.914,0A9.421,9.421,0,0,1,20,7.891a.244.244,0,0,1,0,.08V8.1a.783.783,0,0,1-.2.45.812.812,0,0,1-.555.269l-7.679.506-.127,0a.915.915,0,0,1-.567-.233.881.881,0,0,1-.293-.658L10.062.889V.765A.793.793,0,0,1,10.326.21.824.824,0,0,1,10.914,0Z"/>
</svg>
