<svg xmlns="http://www.w3.org/2000/svg" width="73.164" height="70.417" viewBox="0 0 73.164 70.417">
  <path id="Vector" d="M33.422,0A15.772,15.772,0,0,1,49.292,15.632V32.5H27.8a2.711,2.711,0,1,0,0,5.422H49.292v16.83A15.818,15.818,0,0,1,33.351,70.417H15.905A15.78,15.78,0,0,1,0,54.784V15.668A15.818,15.818,0,0,1,15.941,0ZM58.235,23.062a2.689,2.689,0,0,1,3.838-.035L72.354,33.273a2.689,2.689,0,0,1,.81,1.936,2.61,2.61,0,0,1-.81,1.9L62.073,47.356a2.714,2.714,0,0,1-3.838-3.838l5.633-5.6H49.292V32.5H63.869l-5.633-5.6A2.72,2.72,0,0,1,58.235,23.062Z" fill="#FF0E47"/>
</svg>
