<svg xmlns="http://www.w3.org/2000/svg" width="17" height="20" viewBox="0 0 17 20">
  <path id="Vector" d="M6.463,17.228a25.839,25.839,0,0,1,4.046,0c.427.1.89.329.89.833a1.557,1.557,0,0,1-.695,1.174,3.634,3.634,0,0,1-1.713.731,3.793,3.793,0,0,1-1.008,0,3.618,3.618,0,0,1-1.713-.732,1.552,1.552,0,0,1-.7-1.173C5.574,17.557,6.036,17.327,6.463,17.228ZM8.545,0a7.041,7.041,0,0,1,5.467,2.625A5.544,5.544,0,0,1,15.207,6.37V6.8A3.887,3.887,0,0,0,16.27,9.646a3.362,3.362,0,0,1,.73,2.31,3.615,3.615,0,0,1-.863,2.378,4.537,4.537,0,0,1-2.9,1.413c-1.571.134-3.144.247-4.737.247a41.645,41.645,0,0,1-4.737-.247,4.532,4.532,0,0,1-2.9-1.413A3.616,3.616,0,0,1,0,11.956a3.367,3.367,0,0,1,.73-2.31A3.8,3.8,0,0,0,1.794,6.8V6.37A5.627,5.627,0,0,1,3.077,2.512,7.074,7.074,0,0,1,8.456,0Z"/>
</svg>
