<svg xmlns="http://www.w3.org/2000/svg" width="12.567" height="15.967" viewBox="0 0 12.567 15.967">
  <path id="ic_https_24px" d="M15,6.322H14.21V4.8A3.867,3.867,0,0,0,10.283,1,3.867,3.867,0,0,0,6.356,4.8V6.322H5.571A1.551,1.551,0,0,0,4,7.843v7.6a1.551,1.551,0,0,0,1.571,1.521H15a1.551,1.551,0,0,0,1.571-1.521v-7.6A1.551,1.551,0,0,0,15,6.322Zm-4.713,6.843a1.521,1.521,0,1,1,1.571-1.521A1.551,1.551,0,0,1,10.283,13.165Zm2.435-6.843H7.849V4.8a2.436,2.436,0,0,1,4.87,0Z" transform="translate(-4 -1)" fill="#52b467"/>
</svg>
