<svg xmlns="http://www.w3.org/2000/svg" width="21" height="21" viewBox="0 0 21 21">
  <path id="Vector" d="M10.5,0A10.5,10.5,0,1,0,21,10.5,10.5,10.5,0,0,0,10.5,0Zm.523,15.591,0,.743a.19.19,0,0,1-.187.19h-.666a.188.188,0,0,1-.188-.187V15.6c-2.081-.155-3.061-1.341-3.166-2.63a.188.188,0,0,1,.188-.2H8.091a.187.187,0,0,1,.185.155,1.793,1.793,0,0,0,1.737,1.437V11.013l-.579-.148A2.716,2.716,0,0,1,7.041,8.224c0-1.709,1.3-2.627,2.958-2.789V4.662a.188.188,0,0,1,.188-.187h.659a.188.188,0,0,1,.188.188v.766a2.98,2.98,0,0,1,2.951,2.559.187.187,0,0,1-.187.206H12.743a.187.187,0,0,1-.185-.162,1.648,1.648,0,0,0-1.535-1.364V9.816l.6.138c1.519.375,2.552,1.1,2.552,2.728C14.17,14.447,12.858,15.431,11.023,15.591ZM8.5,8.116c0,.6.368,1.057,1.16,1.343a3.429,3.429,0,0,0,.352.117V6.67C9.145,6.78,8.5,7.266,8.5,8.116Zm2.73,3.169c-.066-.014-.131-.03-.206-.052v3.134c1-.089,1.688-.638,1.688-1.556C12.71,12.091,12.337,11.623,11.229,11.285Z" fill="#7d7d7d"/>
</svg>
