<svg xmlns="http://www.w3.org/2000/svg" width="22" height="16" viewBox="0 0 22 16">
  <path id="_3-Friends" data-name="3-Friends" d="M10.949,10.54c3.431,0,6.361.544,6.361,2.721S14.4,16,10.949,16c-3.431,0-6.361-.544-6.361-2.72S7.5,10.54,10.949,10.54Zm5.486-1.311a15.555,15.555,0,0,1,3.243.284,2.757,2.757,0,0,1,2.131,1.3,1.923,1.923,0,0,1,0,1.67c-.46,1-1.944,1.319-2.521,1.4a.181.181,0,0,1-.2-.205A4.451,4.451,0,0,0,16.431,9.3a.045.045,0,0,1-.029-.047A.038.038,0,0,1,16.435,9.229Zm-11.116,0,.247,0a.037.037,0,0,1,.031.025.046.046,0,0,1-.028.048,4.45,4.45,0,0,0-2.656,4.381.181.181,0,0,1-.2.206c-.577-.083-2.06-.4-2.521-1.4a1.917,1.917,0,0,1,0-1.67,2.758,2.758,0,0,1,2.13-1.3,15.642,15.642,0,0,1,3.244-.283ZM10.949,0a4.206,4.206,0,0,1,4.209,4.233,4.209,4.209,0,1,1-8.419,0A4.206,4.206,0,0,1,10.949,0Zm5.714.706A3.576,3.576,0,0,1,20.088,5.22a3.513,3.513,0,0,1-3.525,2.622,3.4,3.4,0,0,1-.484-.047.158.158,0,0,1-.107-.244A5.842,5.842,0,0,0,15.889.938a.1.1,0,0,1-.016-.11.129.129,0,0,1,.082-.05A3.505,3.505,0,0,1,16.663.706ZM5.336.706a3.521,3.521,0,0,1,.709.073.136.136,0,0,1,.082.05.105.105,0,0,1-.016.11A5.842,5.842,0,0,0,6.027,7.55a.158.158,0,0,1-.107.244,3.282,3.282,0,0,1-.484.047A3.513,3.513,0,0,1,1.912,5.22,3.575,3.575,0,0,1,5.336.706Z"/>
</svg>
